<?xml version="1.0" standalone="no"?>
<!DOCTYPE svg PUBLIC "-//W3C//DTD SVG 20010904//EN"
 "http://www.w3.org/TR/2001/REC-SVG-20010904/DTD/svg10.dtd">
<svg version="1.0" xmlns="http://www.w3.org/2000/svg"
 width="600.000000pt" height="600.000000pt" viewBox="0 0 600.000000 600.000000"
 preserveAspectRatio="xMidYMid meet">

<g transform="translate(0.000000,600.000000) scale(0.100000,-0.100000)"
fill="#000000" stroke="none">
<path d="M1235 5684 c-475 -85 -838 -451 -920 -928 -23 -134 -23 -3378 0
-3512 83 -481 448 -846 929 -929 134 -23 3378 -23 3512 0 481 83 846 448 929
929 23 134 23 3378 0 3512 -83 482 -447 846 -929 929 -129 22 -3397 21 -3521
-1z m690 -743 c120 -56 204 -168 226 -300 27 -168 -69 -345 -226 -418 -54 -25
-71 -28 -165 -28 -96 0 -110 3 -165 29 -80 40 -149 111 -188 194 -29 61 -32
75 -32 162 1 119 25 187 96 264 122 133 297 171 454 97z m175 -2276 l0 -1235
-335 0 -335 0 0 1235 0 1235 335 0 335 0 0 -1235z m1120 1045 c0 -104 4 -190
8 -190 4 0 16 13 25 29 56 95 214 220 346 276 339 141 726 75 953 -163 107
-112 175 -244 221 -431 20 -83 21 -113 24 -943 l4 -858 -335 0 -335 0 -4 688
c-4 748 -4 743 -63 868 -38 80 -123 167 -201 206 -135 66 -308 46 -435 -50
-115 -87 -180 -215 -198 -389 -5 -48 -10 -366 -10 -705 l0 -618 -335 0 -335 0
0 1235 0 1235 335 0 335 0 0 -190z"/>
</g>
</svg>
